<svg width="37" height="27" viewBox="0 0 37 27" fill="none" xmlns="http://www.w3.org/2000/svg">
<path d="M24.1392 25.4888C27.0902 25.4997 29.8298 24.6501 31.8735 23.1925C33.9151 21.7364 35.3559 19.5882 35.374 17.0589C35.3921 14.5296 33.982 12.3708 31.9613 10.8997C29.9385 9.42696 27.2112 8.5571 24.2602 8.54616C21.3092 8.53522 18.5696 9.38481 16.5259 10.8425C14.4843 12.2985 13.0435 14.4467 13.0254 16.976C13.0074 19.5053 14.4175 21.6641 16.4381 23.1352C18.4609 24.608 21.1882 25.4778 24.1392 25.4888Z" stroke="black" stroke-width="3"/>
<rect x="1.48753" y="1.50642" width="16.3487" height="10.943" rx="1.5" transform="matrix(0.999989 0.00430984 -0.00829965 0.99997 9.10407 5.99986)" stroke="black" stroke-width="3"/>
<rect x="1.48928" y="1.50552" width="24.641" height="16.9186" rx="2.5" transform="matrix(0.999993 0.00370761 -0.00713991 0.999975 0.836199 -0.00548344)" stroke="black" stroke-width="3"/>
</svg>
