<svg width="22" height="22" viewBox="0 0 22 22" fill="none" xmlns="http://www.w3.org/2000/svg">
<g clip-path="url(#clip0_48_310)">
<path d="M21.0638 0H17.0456C16.6246 0 16.2975 0.28221 16.1587 0.654011L12.4228 12.471H4.43575L2.19599 5.8861H10.6041C11.1192 5.8861 11.5403 5.46503 11.5403 4.94988C11.5403 4.43473 11.1192 4.01366 10.6041 4.01366H0.932762C0.104049 4.05397 -0.106488 4.81997 0.0458155 5.18282L2.8948 13.6805C3.03366 14.0523 3.40994 14.2897 3.78174 14.2897H13.0768C13.4978 14.2897 13.8696 14.0568 13.9637 13.6805L17.6996 1.86348H21.0638C21.5789 1.86348 22 1.44241 22 0.927263C22 0.412117 21.5744 0 21.0638 0Z" fill="white"/>
<path d="M4.62408 15.974C2.98905 15.974 1.63623 17.3268 1.63623 18.9618C1.63623 20.5969 2.98905 21.9497 4.62408 21.9497C6.2591 21.9497 7.61192 20.5969 7.61192 18.9618C7.61192 17.3268 6.2591 15.974 4.62408 15.974ZM5.74396 19.0066C5.74396 19.6607 5.22881 20.1758 4.62408 20.1758C4.01486 20.1758 3.50419 19.6607 3.50419 19.0066C3.50419 18.3526 4.01934 17.8375 4.62408 17.8375C5.27809 17.842 5.79323 18.3526 5.74396 19.0066Z" fill="white"/>
<path d="M11.9078 15.974C10.2727 15.974 8.91992 17.3268 8.91992 18.9618C8.91992 20.5969 10.2727 21.9497 11.9078 21.9497C13.5876 21.9497 14.8956 20.5969 14.8956 18.9618C14.9001 17.3268 13.5428 15.974 11.9078 15.974ZM13.0321 19.0066C13.0321 19.6607 12.517 20.1758 11.9122 20.1758C11.3075 20.1758 10.7924 19.6607 10.7924 19.0066C10.7924 18.3526 11.3075 17.8375 11.9122 17.8375C12.5618 17.842 13.0769 18.3526 13.0321 19.0066Z" fill="white"/>
</g>
<defs>
<clipPath id="clip0_48_310">
<rect width="22" height="22" fill="white"/>
</clipPath>
</defs>
</svg>
