<svg width="267" height="274" viewBox="0 0 267 274" fill="none" xmlns="http://www.w3.org/2000/svg">
<path d="M202.86 -51.309C214.525 -16.7342 216.511 20.6676 208.599 56.7705C200.687 92.8734 183.186 126.274 158.024 153.289C132.863 180.303 101.021 199.881 66.0089 209.863C30.9972 219.844 -5.82258 219.842 -40.3888 209.856L-27.3585 166.248C-0.626759 173.971 27.8478 173.972 54.9239 166.253C82.0001 158.534 106.626 143.393 126.084 122.502C145.542 101.61 159.077 75.7798 165.196 47.8597C171.314 19.9396 169.778 -8.98499 160.757 -35.7233L202.86 -51.309Z" fill="#254D4D"/>
<path d="M126.752 -16.7671C132.222 2.24083 132.434 22.5368 127.366 42.042C122.298 61.5471 112.132 79.5604 97.9091 94.2369C83.6861 108.913 65.9175 119.726 46.4233 125.566C26.929 131.406 6.40968 132.065 -13.033 127.475L-4.29209 95.8054C9.53545 99.0701 24.1287 98.6016 37.9929 94.448C51.8571 90.2943 64.494 82.6048 74.6093 72.1669C84.7246 61.7291 91.9548 48.9181 95.5592 35.0462C99.1635 21.1742 99.0127 6.7398 95.122 -6.77857L126.752 -16.7671Z" fill="#254D4D"/>
</svg>
