<svg width="14" height="19" viewBox="0 0 14 19" fill="none" xmlns="http://www.w3.org/2000/svg">
<path d="M0.447013 10.3177H3.485V18.4781C3.485 18.6392 3.68509 18.7697 3.93202 18.7697H9.08304C9.32997 18.7697 9.53005 18.6392 9.53005 18.4781V10.3561H13.0225C13.2496 10.3561 13.4406 10.2449 13.4665 10.0978L13.997 7.09353C14.0115 7.01088 13.9714 6.9281 13.8866 6.8661C13.8018 6.80403 13.6804 6.76851 13.553 6.76851H9.53023V4.8853C9.53023 4.31761 9.9987 4.02974 10.9228 4.02974C11.0545 4.02974 13.553 4.02974 13.553 4.02974C13.7999 4.02974 14 3.89913 14 3.73808V0.980466C14 0.819352 13.7999 0.688804 13.553 0.688804H9.92816C9.90259 0.687987 9.84582 0.686646 9.76214 0.686646C9.13319 0.686646 6.94703 0.767203 5.22013 1.80377C3.30673 2.95245 3.57271 4.32782 3.63627 4.56628V6.76845H0.447013C0.200083 6.76845 0 6.899 0 7.06011V10.026C0 10.1871 0.200083 10.3177 0.447013 10.3177Z" fill="white"/>
</svg>
