<svg width="20" height="19" viewBox="0 0 20 19" fill="none" xmlns="http://www.w3.org/2000/svg">
<path d="M2.6657 0.686646C1.19693 0.686646 0.00107541 1.7692 0 3.10011C0 4.43102 1.19585 5.51378 2.6657 5.51378C4.13501 5.51378 5.33025 4.43102 5.33025 3.10011C5.33025 1.76933 4.13493 0.686646 2.6657 0.686646Z" fill="white"/>
<path d="M4.66664 6.48352H0.665057C0.47471 6.48352 0.320312 6.62325 0.320312 6.79573V18.4576C0.320312 18.63 0.47471 18.7697 0.665057 18.7697H4.66656C4.85699 18.7697 5.01138 18.6299 5.01138 18.4576V6.79573C5.01146 6.62318 4.85706 6.48352 4.66664 6.48352Z" fill="white"/>
<path d="M14.8962 6.34619C13.4318 6.34619 12.145 6.74993 11.3597 7.40829V6.79569C11.3597 6.62321 11.2053 6.48348 11.0149 6.48348H7.17636C6.98594 6.48348 6.83154 6.62321 6.83154 6.79569V18.4575C6.83154 18.6299 6.98594 18.7697 7.17636 18.7697H11.1741C11.3645 18.7697 11.5189 18.6299 11.5189 18.4575V12.6879C11.5189 11.0324 11.8552 10.0063 13.5335 10.0063C15.1871 10.0082 15.3108 11.1084 15.3108 12.7868V18.4575C15.3108 18.6299 15.4652 18.7697 15.6557 18.7697H19.6553C19.8456 18.7697 20 18.6299 20 18.4575V12.0605C20 9.4 19.4199 6.34619 14.8962 6.34619Z" fill="white"/>
</svg>
