<svg width="20" height="19" viewBox="0 0 20 19" fill="none" xmlns="http://www.w3.org/2000/svg">
<path d="M9.9995 0.686646C4.47625 0.686646 0 4.73477 0 9.72772C0 13.5577 2.6355 16.8321 6.35604 18.1498C6.26795 17.4348 6.18988 16.3343 6.39007 15.5542C6.57224 14.8483 7.56318 11.0599 7.56318 11.0599C7.56318 11.0599 7.2639 10.5178 7.2639 9.71686C7.2639 8.46071 8.06966 7.52221 9.07362 7.52221C9.92743 7.52221 10.3388 8.10142 10.3388 8.79556C10.3388 9.57206 9.7923 10.7314 9.51103 11.8065C9.27581 12.7061 10.0105 13.4401 10.9914 13.4401C12.7681 13.4401 14.1354 11.7459 14.1354 9.29965C14.1354 7.13486 12.4148 5.62168 9.95846 5.62168C7.11276 5.62168 5.44217 7.55117 5.44217 9.54491C5.44217 10.3214 5.77348 11.1549 6.18688 11.6083C6.22201 11.6425 6.24681 11.6842 6.25891 11.7296C6.27101 11.7749 6.26999 11.8223 6.25594 11.8672C6.17987 12.1523 6.01071 12.7668 5.97868 12.8926C5.93464 13.0582 5.83354 13.0935 5.64336 13.0138C4.39517 12.488 3.61443 10.8373 3.61443 9.51052C3.61443 6.65883 5.90561 4.03972 10.2217 4.03972C13.691 4.03972 16.3866 6.2742 16.3866 9.26164C16.3866 12.3785 14.2135 14.8845 11.1976 14.8845C10.1837 14.8845 9.23177 14.4094 8.90546 13.8473L8.28187 15.9958C8.05665 16.7814 7.44707 17.766 7.03969 18.367C7.99871 18.6347 8.99681 18.7704 10.0005 18.7697C15.5227 18.7697 20 14.7216 20 9.72863C20 4.73567 15.5217 0.686646 9.9995 0.686646Z" fill="white"/>
</svg>
