<svg width="20" height="19" viewBox="0 0 20 19" fill="none" xmlns="http://www.w3.org/2000/svg">
<path d="M19.5467 2.77356C19.2325 2.92745 18.9095 3.05734 18.5794 3.16278C18.9702 2.67474 19.2681 2.10048 19.45 1.47208C19.4908 1.33122 19.4485 1.17704 19.3437 1.08492C19.239 0.992725 19.0935 0.981682 18.9782 1.05713C18.2772 1.51625 17.521 1.8462 16.728 2.03914C15.9293 1.17719 14.8444 0.686646 13.7228 0.686646C11.3554 0.686646 9.42934 2.8136 9.42934 5.42796C9.42934 5.63386 9.44114 5.83863 9.4645 6.04055C6.52677 5.7557 3.79561 4.16111 1.92014 1.62049C1.8533 1.52993 1.75033 1.48113 1.64491 1.49046C1.53943 1.49958 1.44465 1.56527 1.39136 1.66623C1.01098 2.38704 0.809882 3.21145 0.809882 4.05024C0.809882 5.1927 1.17924 6.27666 1.83169 7.12365C1.6333 7.04777 1.44078 6.95294 1.25704 6.8403C1.1584 6.77967 1.03801 6.78059 0.940011 6.84265C0.841946 6.90471 0.780463 7.01885 0.777882 7.1436C0.777431 7.16462 0.777431 7.18564 0.777431 7.20694C0.777431 8.91225 1.60852 10.4476 2.87917 11.2844C2.77 11.2723 2.66091 11.2549 2.55252 11.232C2.44078 11.2084 2.32588 11.2517 2.25052 11.3458C2.17504 11.4398 2.15007 11.5709 2.18485 11.6906C2.65517 13.3122 3.86607 14.505 5.32993 14.8686C4.11581 15.7084 2.72736 16.1483 1.26982 16.1483C0.965688 16.1483 0.659818 16.1286 0.360464 16.0894C0.211755 16.0699 0.0695618 16.1669 0.0189168 16.3231C-0.0317282 16.4793 0.0219491 16.6535 0.148465 16.7431C2.02091 18.0689 4.186 18.7697 6.40954 18.7697C10.7808 18.7697 13.5153 16.4934 15.0394 14.5837C16.9401 12.2025 18.0301 9.05076 18.0301 5.9366C18.0301 5.8065 18.0283 5.67512 18.0247 5.54416C18.7746 4.92025 19.4202 4.16517 19.9456 3.2973C20.0254 3.16549 20.0167 2.99129 19.9243 2.86996C19.8319 2.74855 19.6781 2.70929 19.5467 2.77356Z" fill="white"/>
</svg>
